# AST/ASF file generated using VICON BodyLanguage
# -----------------------------------------------
:version 1.10
:name VICON
:units
  mass 1.0
  length 0.45
  angle deg
:documentation
   .ast/.asf automatically generated from VICON data using
   VICON BodyBuilder and BodyLanguage model FoxedUp or BRILLIANT.MOD
:root
   order TX TY TZ RX RY RZ
   axis XYZ
   position 0 0 0  
   orientation 0 0 0 
:bonedata
  begin
     id 1 
     name lhipjoint
     direction 0.570549 -0.739093 0.358072 
     length 2.41801 
     axis 0 0 0  XYZ
  end
  begin
     id 2 
     name lfemur
     direction 0.34202 -0.939693 0  
     length 7.44434  
     axis 0 0 20  XYZ
    dof rx ry rz
    limits (-160.0 20.0)
           (-70.0 70.0)
           (-60.0 70.0)
  end
  begin
     id 3 
     name ltibia
     direction 0.34202 -0.939693 0   
     length 7.60047   
     axis 0 0 20   XYZ
    dof rx
    limits (-10.0 170.0)
  end
  begin
     id 4 
     name lfoot
     direction 0.0909041 -0.249757 0.964032   
     length 2.03437   
     axis -90 7.62852e-016 20   XYZ
    dof rx rz
    limits (-45.0 90.0)
           (-70.0 20.0)
  end
  begin
     id 5 
     name ltoes
     direction 1.53547e-011 -4.2174e-011 1   
     length 1.02054   
     axis -90 7.62852e-016 20   XYZ
    dof rx
    limits (-90.0 20.0)
  end
  begin
     id 6 
     name rhipjoint
     direction -0.558096 -0.746754 0.361784   
     length 2.3932  
     axis 0 0 0  XYZ 
  end
  begin
     id 7 
     name rfemur
     direction -0.34202 -0.939693 0   
     length 7.3886   
     axis 0 0 -20   XYZ
    dof rx ry rz
    limits (-160.0 20.0)
           (-70.0 70.0)
           (-70.0 60.0)
  end
  begin
     id 8 
     name rtibia
     direction -0.34202 -0.939693 0   
     length 7.4839   
     axis 0 0 -20   XYZ
    dof rx
    limits (-10.0 170.0)
 end
 begin
     id 9 
     name rfoot
     direction -0.114619 -0.314914 0.942174   
     length 2.25127  
     axis -90 -7.62852e-016 -20   XYZ
    dof rx rz
    limits (-45.0 90.0)
           (-20.0 70.0)
  end
  begin
     id 10 
     name rtoes
     direction -1.53518e-011 -4.21881e-011 1   
     length 1.11821   
     axis -90 -7.62852e-016 -20   XYZ
    dof rx
    limits (-90.0 20.0)
  end
  begin
     id 11 
     name lowerback
     direction -0.00902269 0.996426 -0.0839821   
     length 2.25052   
     axis 0 0 0   XYZ
    dof rx ry rz
    limits (-20.0 45.0)
           (-30.0 30.0)
           (-30.0 30.0)
  end
  begin
     id 12 
     name upperback
     direction 0.0370973 0.999169 -0.0168941   
     length 2.24876   
     axis 0 0 0   XYZ
    dof rx ry rz
    limits (-20.0 45.0)
           (-30.0 30.0)
           (-30.0 30.0)
  end
  begin
     id 13 
     name thorax
     direction 0.0402726 0.998931 0.0227027   
     length 2.26408   
     axis 0 0 0   XYZ
    dof rx ry rz
    limits (-20.0 45.0)
           (-30.0 30.0)
           (-30.0 30.0)
  end
  begin
     id 14 
     name lowerneck
     direction -0.0733697 0.98508 0.155675   
     length 1.58204   
     axis 0 0 0   XYZ
    dof rx ry rz
    limits (-20.0 45.0)
           (-30.0 30.0)
           (-30.0 30.0)
  end
  begin
     id 15 
     name upperneck
     direction 0.0426554 0.993501 -0.105526   
     length 1.61222   
     axis 0 0 0   XYZ
    dof rx ry rz
    limits (-20.0 45.0)
           (-30.0 30.0)
           (-30.0 30.0)
  end
  begin
     id 16
     name head
     direction 0.020792 0.998384 -0.0528868  
     length 1.61527  
     axis 0 0 0   XYZ
    dof rx ry rz
    limits (-20.0 45.0)
           (-30.0 30.0)
           (-30.0 30.0)
  end
  begin
     id 17 
     name lclavicle
     direction 0.967109 0.155462 -0.201325  
     length 3.59357  
     axis 0 0 0   XYZ
    dof ry rz
    limits (-20.0 10.0)
           (0.0 20.0)
  end
  begin
     id 18 
     name lhumerus
     direction 1 -4.48968e-011 2.38195e-027   
     length 5.38154   
     axis 180 -30 -90   XYZ
    dof rx ry rz
    limits (-60.0 90.0)
           (-90.0 90.0)
           (-90.0 90.0)
  end
  begin
     id 19
     name lradius
     direction 1 -4.48961e-011 4.85371e-027   
     length 3.33312   
     axis 180 -30 -90   XYZ
    dof rx
    limits (-10.0 170.0)
  end
  begin
     id 20
     name lwrist
     direction 1 -4.48961e-011 4.76515e-027   
     length 1.66656   
     axis -3.27502e-015 90 90   XYZ
    dof ry
    limits (-180.0 0.0)
 end
  begin
     id 21 
     name lhand
     direction 1 -4.48951e-011 9.53074e-027   
     length 0.710789   
     axis -6.08098e-015 90 90   XYZ
    dof rx rz
    limits (-90.0 90.0)
           (-45.0 45.0)
  end
  begin
     id 22 
     name lfingers
     direction 1 -4.48953e-011 1.90613e-026   
     length 0.573057   
     axis -1.21619e-014 90 90   XYZ
    dof rx
    limits (0.0 90.0)
  end
  begin
     id 23
     name lthumb
     direction 0.707107 -6.34973e-011 0.707107   
     length 0.822798   
     axis -90 45 -9.86923e-015   XYZ
    dof rx rz
    limits (-45.0 45.0)
           (-45.0 45.0)
  end
  begin
     id 24 
     name rclavicle
     direction -0.9585 0.265289 -0.104398   
     length 3.42039  
     axis 0 0 0   XYZ 
    dof ry rz
    limits (-10.0 20.0)
           (-20.0 0.0)
  end
  begin
     id 25 
     name rhumerus
     direction -1 -4.48977e-011 2.21478e-027  
     length 5.16954   
     axis 180 30 90   XYZ
    dof rx ry rz
    limits (-90.0 60.0)
           (-90.0 90.0)
           (-90.0 90.0)
  end
  begin
     id 26 
     name rradius
     direction -1 -4.48967e-011 5.63677e-027   
     length 3.38287   
     axis 180 30 90   XYZ
    dof rx
    limits (-10.0 170.0)
  end
  begin
     id 27 
     name rwrist
     direction -1 -4.48967e-011 4.76501e-027   
     length 1.69144   
     axis -3.27502e-015 -90 -90   XYZ
    dof ry
    limits (-180.0 0.0)
  end
  begin
     id 28
     name rhand
     direction -1 -4.48902e-011 9.53292e-027   
     length 0.817967   
     axis -6.08098e-015 -90 -90   XYZ
    dof rx rz
    limits (-90.0 90.0)
           (-45.0 45.0)
  end
  begin
     id 29
     name rfingers
     direction -1 -4.49012e-011 1.90561e-026   
     length 0.659466   
     axis -1.21619e-014 -90 -90   XYZ
    dof rx
    limits (0.0 90.0)
  end
  begin
     id 30
     name rthumb
     direction -0.707107 -6.34944e-011 0.707107   
     length 0.946865   
     axis -90 -45 9.86923e-015   XYZ
    dof rx rz
    limits (-45.0 45.0)
           (-45.0 45.0)
  end
:hierarchy
  begin
    root lhipjoint rhipjoint lowerback
    lhipjoint lfemur
    lfemur ltibia
    ltibia lfoot
    lfoot ltoes
    rhipjoint rfemur
    rfemur rtibia
    rtibia rfoot
    rfoot rtoes
    lowerback upperback
    upperback thorax
    thorax lowerneck lclavicle rclavicle
    lowerneck upperneck
    upperneck head
    lclavicle lhumerus
    lhumerus lradius
    lradius lwrist
    lwrist lhand lthumb
    lhand lfingers
    rclavicle rhumerus
    rhumerus rradius
    rradius rwrist
    rwrist rhand rthumb
    rhand rfingers
  end

#!OML:ASF F:\twosubjects\two\wednesday\Session 1\Justin1.ASF
:FULLY-SPECIFIED
:DEGREES
195
root 11.3102 16.0501 -20.6208 -349.76 13.0254 -380.131
lowerback 15.174 3.73664 -1.19514
upperback 1.77627 4.75217 0.271817
thorax -6.71962 2.34452 -0.0223938
lowerneck -4.05268 -17.0739 -18.5865
upperneck 2.57326 -24.8155 29.6405
head 7.96786 -11.7966 9.54636
rclavicle 7.71285e-014 1.43125e-014
rhumerus 3.91326 -68.2382 -38.5362
rradius 39.0213
rwrist -66.5096
rhand -13.1307 -19.6602
rfingers 7.12502
rthumb 12.9672 -49.2372
lclavicle 7.71285e-014 1.43125e-014
lhumerus -35.3145 34.983 8.91549
lradius 20.7774
lwrist -16.8033
lhand -0.153241 33.2738
lfingers 7.12502
lthumb 25.4436 61.5956
rfemur -12.0581 4.49014 33.6483
rtibia 37.7404
rfoot -21.7156 17.4266
rtoes 4.90253
lfemur -58.7105 2.54676 3.15366
ltibia 65.545
lfoot -17.8275 -7.15204
ltoes -20.7138
196
root 11.5099 16.0453 -20.3833 -349.524 11.9984 -379.931
lowerback 15.0501 3.72388 -1.46985
upperback 1.82769 4.69498 0.321151
thorax -6.62203 2.32469 0.205051
lowerneck -1.96092 -16.3967 -19.2343
upperneck 0.200554 -23.8263 31.6032
head 7.05906 -11.6225 10.7403
rclavicle -1.90833e-014 7.95139e-015
rhumerus 5.02766 -69.3525 -39.5689
rradius 38.6536
rwrist -65.2623
rhand -11.3558 -19.989
rfingers 7.12502
rthumb 14.6777 -49.4495
lclavicle -1.90833e-014 7.95139e-015
lhumerus -35.1203 36.2577 8.04367
lradius 20.7179
lwrist -17.8953
lhand -0.512012 33.3031
lfingers 7.12502
lthumb 25.0999 61.6734
rfemur -11.5155 4.775 32.5811
rtibia 38.0716
rfoot -19.8012 18.6194
rtoes 4.74616
lfemur -58.326 2.22904 2.52645
ltibia 64.211
lfoot -17.6376 -7.90955
ltoes -18.9064
197
root 11.7047 16.0319 -20.1319 -349.433 11.1089 -379.941
lowerback 14.9435 3.67812 -1.67398
upperback 1.88663 4.6199 0.550581
thorax -6.53459 2.29655 0.585586
lowerneck -3.02774 -16.7465 -19.1381
upperneck 1.4358 -24.3517 30.6479
head 7.57543 -11.7205 10.1729
rclavicle 1.59028e-015 2.38542e-014
rhumerus 6.55388 -70.34 -40.7083
rradius 38.1874
rwrist -64.3099
rhand -11.5782 -19.1594
rfingers 7.12502
rthumb 14.4635 -48.6354
lclavicle 1.59028e-015 2.38542e-014
lhumerus -34.904 36.9413 7.48996
lradius 20.6764
lwrist -18.4943
lhand -1.0241 33.5213
lfingers 7.12502
lthumb 24.6091 61.9594
rfemur -10.9697 5.06269 31.7436
rtibia 38.5434
rfoot -17.2997 19.9075
rtoes 5.57977
lfemur -57.828 1.98595 2.05853
ltibia 63.595
lfoot -17.6741 -7.55859
ltoes -15.2492
198
root 11.8934 16.0086 -19.877 -349.522 10.2593 -380.369
lowerback 14.9583 3.5845 -1.48967
upperback 1.94946 4.55625 0.964438
thorax -6.49437 2.26638 0.933702
lowerneck -4.01097 -17.1007 -19.3496
upperneck 2.70811 -24.9035 29.8681
head 8.17353 -11.8427 9.71789
rclavicle 6.04305e-014 -3.33958e-014
rhumerus 9.1021 -71.3596 -42.71
rradius 37.8409
rwrist -64.1907
rhand -12.7564 -19.134
rfingers 7.12502
rthumb 13.328 -48.6878
lclavicle 6.04305e-014 -3.33958e-014
lhumerus -34.8685 37.6004 7.03161
lradius 20.6743
lwrist -19.1451
lhand -1.56025 33.9444
lfingers 7.12502
lthumb 24.0951 62.4515
rfemur -10.3848 5.46715 31.331
rtibia 39.1542
rfoot -14.0672 21.131
rtoes 7.25998
lfemur -57.1312 1.9008 1.98333
ltibia 63.8161
lfoot -18.0119 -6.45939
ltoes -11.9464
199
root 12.0817 15.9976 -19.6199 -349.64 9.17876 -380.929
lowerback 14.9826 3.50622 -1.18321
upperback 2.02355 4.52982 1.35196
thorax -6.43665 2.25076 1.17783
lowerneck -4.45949 -17.1896 -19.764
upperneck 3.32968 -25.101 29.8534
head 8.55856 -11.8707 9.6936
rclavicle 4.85035e-014 -1.11319e-014
rhumerus 10.5736 -71.4698 -43.8109
rradius 37.6037
rwrist -64.6843
rhand -12.8187 -19.9808
rfingers 7.12502
rthumb 13.2679 -49.5385
lclavicle 4.85035e-014 -1.11319e-014
lhumerus -34.8123 37.8144 6.76691
lradius 20.7855
lwrist -19.2753
lhand -2.26961 34.4207
lfingers 7.12502
lthumb 23.4148 63.0162
rfemur -9.93355 6.13953 30.9447
rtibia 40.0009
rfoot -9.72665 22.4205
rtoes 9.80404
lfemur -56.1057 2.1873 1.95187
ltibia 64.7409
lfoot -18.7229 -5.44754
ltoes -10.0005
200
root 12.2711 15.9921 -19.3642 -349.681 7.9276 -381.463
lowerback 15.0734 3.41664 -0.937831
upperback 1.99164 4.46801 1.5872
thorax -6.51928 2.21756 1.29549
lowerneck -4.41667 -17.0703 -19.846
upperneck 3.51305 -25.0194 30.0473
head 8.63816 -11.8267 9.80738
rclavicle 3.02153e-014 1.59028e-015
rhumerus 7.75215 -68.9374 -40.8979
rradius 37.4026
rwrist -67.156
rhand -13.2134 -19.1825
rfingers 7.12502
rthumb 12.8875 -48.7645
lclavicle 3.02153e-014 1.59028e-015
lhumerus -34.4948 36.8036 6.72055
lradius 21.0029
lwrist -18.2353
lhand -2.86457 34.827
lfingers 7.12502
lthumb 22.8439 63.4941
rfemur -9.88897 6.91982 30.3928
rtibia 41.1001
rfoot -3.58714 23.5471
rtoes 14.9579
lfemur -54.8251 2.62668 1.92918
ltibia 66.0118
lfoot -19.933 -5.01084
ltoes -7.48134
201
root 12.4572 15.9723 -19.1143 -349.637 6.66336 -382.06
lowerback 15.3064 3.33344 -0.602956
upperback 1.80844 4.42958 1.77406
thorax -6.83226 2.19258 1.29494
lowerneck -4.20389 -16.9009 -19.5496
upperneck 3.67269 -24.8548 29.9757
head 8.55229 -11.7603 9.80711
rclavicle 3.26007e-014 4.77083e-015
rhumerus 5.20796 -66.2686 -38.3569
rradius 37.2633
rwrist -69.9118
rhand -14.2751 -17.9136
rfingers 7.12502
rthumb 11.8638 -47.5575
lclavicle 3.26007e-014 4.77083e-015
lhumerus -33.9479 35.2636 6.83703
lradius 21.123
lwrist -16.9768
lhand -3.46364 35.3714
lfingers 7.12502
lthumb 22.2689 64.1083
rfemur -10.3351 7.69968 29.8575
rtibia 42.4245
rfoot 3.46564 23.6477
rtoes 19.3597
lfemur -53.4304 2.8675 2.14902
ltibia 67.1561
lfoot -21.5711 -4.68233
ltoes -6.05746
202
root 12.6417 15.9644 -18.8539 -349.494 5.39909 -382.591
lowerback 15.3199 3.3022 -0.378136
upperback 1.73666 4.44821 2.04723
thorax -6.92295 2.19967 1.45138
lowerneck -4.47589 -16.8068 -19.1261
upperneck 4.02264 -24.7452 29.6987
head 8.57368 -11.6674 9.6608
rclavicle 4.21423e-014 1.59028e-015
rhumerus 5.19276 -65.7732 -38.2801
rradius 37.3186
rwrist -70.622
rhand -14.0577 -18.7064
rfingers 7.12502
rthumb 12.0734 -48.3381
lclavicle 4.21423e-014 1.59028e-015
lhumerus -33.4574 34.3608 6.98128
lradius 21.0761
lwrist -16.4179
lhand -4.00346 35.607
lfingers 7.12502
lthumb 21.7506 64.4049
rfemur -11.1376 8.65131 29.2783
rtibia 43.9682
rfoot 10.1488 22.6377
rtoes 22.1759
lfemur -51.9184 2.7924 2.47422
ltibia 67.8606
lfoot -23.4968 -4.03332
ltoes -6.89555
203
root 12.8219 15.966 -18.5784 -349.287 4.13797 -382.672
lowerback 15.0459 3.32167 -0.71845
upperback 1.83238 4.438 2.35663
thorax -6.72076 2.20918 1.98967
lowerneck -4.57761 -17.008 -19.6149
upperneck 4.3291 -25.0855 29.7406
head 8.85578 -11.8105 9.65473
rclavicle -4.53229e-014 5.24792e-014
rhumerus 5.0006 -64.988 -37.7816
rradius 37.6141
rwrist -71.5928
rhand -12.9085 -20.292
rfingers 7.12502
rthumb 13.1814 -49.8553
lclavicle -4.53229e-014 5.24792e-014
lhumerus -33.127 33.8548 7.2594
lradius 21.0932
lwrist -16.23
lhand -4.26603 35.3924
lfingers 7.12502
lthumb 21.4985 64.2194
rfemur -12.194 9.24936 28.2416
rtibia 46.0019
rfoot 15.9883 21.3943
rtoes 24.1956
lfemur -50.2954 2.37763 2.39102
ltibia 68.0107
lfoot -25.3422 -3.10737
ltoes -8.38328
